<?xml version="1.0" encoding="utf-8" standalone="no"?>
<!DOCTYPE svg PUBLIC "-//W3C//DTD SVG 1.1//EN"
  "http://www.w3.org/Graphics/SVG/1.1/DTD/svg11.dtd">
<svg xmlns:xlink="http://www.w3.org/1999/xlink" width="1144.624375pt" height="568.645666pt" viewBox="0 0 1144.624375 568.645666" xmlns="http://www.w3.org/2000/svg" version="1.1">
 <metadata>
  <rdf:RDF xmlns:dc="http://purl.org/dc/elements/1.1/" xmlns:cc="http://creativecommons.org/ns#" xmlns:rdf="http://www.w3.org/1999/02/22-rdf-syntax-ns#">
   <cc:Work>
    <dc:type rdf:resource="http://purl.org/dc/dcmitype/StillImage"/>
    <dc:date>2024-08-16T10:15:35.155543</dc:date>
    <dc:format>image/svg+xml</dc:format>
    <dc:creator>
     <cc:Agent>
      <dc:title>Matplotlib v3.8.4, https://matplotlib.org/</dc:title>
     </cc:Agent>
    </dc:creator>
   </cc:Work>
  </rdf:RDF>
 </metadata>
 <defs>
  <style type="text/css">*{stroke-linejoin: round; stroke-linecap: butt}</style>
 </defs>
 <g id="figure_1">
  <g id="patch_1">
   <path d="M 0 568.645666 
L 1144.624375 568.645666 
L 1144.624375 0 
L 0 0 
z
" style="fill: #ffffff"/>
  </g>
  <g id="axes_1">
   <g id="patch_2">
    <path d="M 60.654375 495.768801 
L 1137.424375 495.768801 
L 1137.424375 42.396875 
L 60.654375 42.396875 
z
" style="fill: #ffffff"/>
   </g>
   <g id="matplotlib.axis_1">
    <g id="xtick_1">
     <g id="line2d_1">
      <path d="M 88.574646 495.768801 
L 88.574646 42.396875 
" clip-path="url(#p6e401e42ca)" style="fill: none; stroke-dasharray: 2.96,1.28; stroke-dashoffset: 0; stroke: #b0b0b0; stroke-opacity: 0.7; stroke-width: 0.8"/>
     </g>
     <g id="line2d_2">
      <defs>
       <path id="md9b0520e96" d="M 0 0 
L 0 3.5 
" style="stroke: #000000; stroke-width: 0.8"/>
      </defs>
      <g>
       <use xlink:href="#md9b0520e96" x="88.574646" y="495.768801" style="stroke: #000000; stroke-width: 0.8"/>
      </g>
     </g>
     <g id="text_1">
      <!-- 2016-01 -->
      <g transform="translate(43.904861 535.735016) rotate(-30) scale(0.12 -0.12)">
       <defs>
        <path id="DejaVuSans-32" d="M 1228 531 
L 3431 531 
L 3431 0 
L 469 0 
L 469 531 
Q 828 903 1448 1529 
Q 2069 2156 2228 2338 
Q 2531 2678 2651 2914 
Q 2772 3150 2772 3378 
Q 2772 3750 2511 3984 
Q 2250 4219 1831 4219 
Q 1534 4219 1204 4116 
Q 875 4013 500 3803 
L 500 4441 
Q 881 4594 1212 4672 
Q 1544 4750 1819 4750 
Q 2544 4750 2975 4387 
Q 3406 4025 3406 3419 
Q 3406 3131 3298 2873 
Q 3191 2616 2906 2266 
Q 2828 2175 2409 1742 
Q 1991 1309 1228 531 
z
" transform="scale(0.015625)"/>
        <path id="DejaVuSans-30" d="M 2034 4250 
Q 1547 4250 1301 3770 
Q 1056 3291 1056 2328 
Q 1056 1369 1301 889 
Q 1547 409 2034 409 
Q 2525 409 2770 889 
Q 3016 1369 3016 2328 
Q 3016 3291 2770 3770 
Q 2525 4250 2034 4250 
z
M 2034 4750 
Q 2819 4750 3233 4129 
Q 3647 3509 3647 2328 
Q 3647 1150 3233 529 
Q 2819 -91 2034 -91 
Q 1250 -91 836 529 
Q 422 1150 422 2328 
Q 422 3509 836 4129 
Q 1250 4750 2034 4750 
z
" transform="scale(0.015625)"/>
        <path id="DejaVuSans-31" d="M 794 531 
L 1825 531 
L 1825 4091 
L 703 3866 
L 703 4441 
L 1819 4666 
L 2450 4666 
L 2450 531 
L 3481 531 
L 3481 0 
L 794 0 
L 794 531 
z
" transform="scale(0.015625)"/>
        <path id="DejaVuSans-36" d="M 2113 2584 
Q 1688 2584 1439 2293 
Q 1191 2003 1191 1497 
Q 1191 994 1439 701 
Q 1688 409 2113 409 
Q 2538 409 2786 701 
Q 3034 994 3034 1497 
Q 3034 2003 2786 2293 
Q 2538 2584 2113 2584 
z
M 3366 4563 
L 3366 3988 
Q 3128 4100 2886 4159 
Q 2644 4219 2406 4219 
Q 1781 4219 1451 3797 
Q 1122 3375 1075 2522 
Q 1259 2794 1537 2939 
Q 1816 3084 2150 3084 
Q 2853 3084 3261 2657 
Q 3669 2231 3669 1497 
Q 3669 778 3244 343 
Q 2819 -91 2113 -91 
Q 1303 -91 875 529 
Q 447 1150 447 2328 
Q 447 3434 972 4092 
Q 1497 4750 2381 4750 
Q 2619 4750 2861 4703 
Q 3103 4656 3366 4563 
z
" transform="scale(0.015625)"/>
        <path id="DejaVuSans-2d" d="M 313 2009 
L 1997 2009 
L 1997 1497 
L 313 1497 
L 313 2009 
z
" transform="scale(0.015625)"/>
       </defs>
       <use xlink:href="#DejaVuSans-32"/>
       <use xlink:href="#DejaVuSans-30" x="63.623047"/>
       <use xlink:href="#DejaVuSans-31" x="127.246094"/>
       <use xlink:href="#DejaVuSans-36" x="190.869141"/>
       <use xlink:href="#DejaVuSans-2d" x="254.492188"/>
       <use xlink:href="#DejaVuSans-30" x="290.576172"/>
       <use xlink:href="#DejaVuSans-31" x="354.199219"/>
      </g>
     </g>
    </g>
    <g id="xtick_2">
     <g id="line2d_3">
      <path d="M 205.161286 495.768801 
L 205.161286 42.396875 
" clip-path="url(#p6e401e42ca)" style="fill: none; stroke-dasharray: 2.96,1.28; stroke-dashoffset: 0; stroke: #b0b0b0; stroke-opacity: 0.7; stroke-width: 0.8"/>
     </g>
     <g id="line2d_4">
      <g>
       <use xlink:href="#md9b0520e96" x="205.161286" y="495.768801" style="stroke: #000000; stroke-width: 0.8"/>
      </g>
     </g>
     <g id="text_2">
      <!-- 2017-01 -->
      <g transform="translate(160.491501 535.735016) rotate(-30) scale(0.12 -0.12)">
       <defs>
        <path id="DejaVuSans-37" d="M 525 4666 
L 3525 4666 
L 3525 4397 
L 1831 0 
L 1172 0 
L 2766 4134 
L 525 4134 
L 525 4666 
z
" transform="scale(0.015625)"/>
       </defs>
       <use xlink:href="#DejaVuSans-32"/>
       <use xlink:href="#DejaVuSans-30" x="63.623047"/>
       <use xlink:href="#DejaVuSans-31" x="127.246094"/>
       <use xlink:href="#DejaVuSans-37" x="190.869141"/>
       <use xlink:href="#DejaVuSans-2d" x="254.492188"/>
       <use xlink:href="#DejaVuSans-30" x="290.576172"/>
       <use xlink:href="#DejaVuSans-31" x="354.199219"/>
      </g>
     </g>
    </g>
    <g id="xtick_3">
     <g id="line2d_5">
      <path d="M 321.429383 495.768801 
L 321.429383 42.396875 
" clip-path="url(#p6e401e42ca)" style="fill: none; stroke-dasharray: 2.96,1.28; stroke-dashoffset: 0; stroke: #b0b0b0; stroke-opacity: 0.7; stroke-width: 0.8"/>
     </g>
     <g id="line2d_6">
      <g>
       <use xlink:href="#md9b0520e96" x="321.429383" y="495.768801" style="stroke: #000000; stroke-width: 0.8"/>
      </g>
     </g>
     <g id="text_3">
      <!-- 2018-01 -->
      <g transform="translate(276.759598 535.735016) rotate(-30) scale(0.12 -0.12)">
       <defs>
        <path id="DejaVuSans-38" d="M 2034 2216 
Q 1584 2216 1326 1975 
Q 1069 1734 1069 1313 
Q 1069 891 1326 650 
Q 1584 409 2034 409 
Q 2484 409 2743 651 
Q 3003 894 3003 1313 
Q 3003 1734 2745 1975 
Q 2488 2216 2034 2216 
z
M 1403 2484 
Q 997 2584 770 2862 
Q 544 3141 544 3541 
Q 544 4100 942 4425 
Q 1341 4750 2034 4750 
Q 2731 4750 3128 4425 
Q 3525 4100 3525 3541 
Q 3525 3141 3298 2862 
Q 3072 2584 2669 2484 
Q 3125 2378 3379 2068 
Q 3634 1759 3634 1313 
Q 3634 634 3220 271 
Q 2806 -91 2034 -91 
Q 1263 -91 848 271 
Q 434 634 434 1313 
Q 434 1759 690 2068 
Q 947 2378 1403 2484 
z
M 1172 3481 
Q 1172 3119 1398 2916 
Q 1625 2713 2034 2713 
Q 2441 2713 2670 2916 
Q 2900 3119 2900 3481 
Q 2900 3844 2670 4047 
Q 2441 4250 2034 4250 
Q 1625 4250 1398 4047 
Q 1172 3844 1172 3481 
z
" transform="scale(0.015625)"/>
       </defs>
       <use xlink:href="#DejaVuSans-32"/>
       <use xlink:href="#DejaVuSans-30" x="63.623047"/>
       <use xlink:href="#DejaVuSans-31" x="127.246094"/>
       <use xlink:href="#DejaVuSans-38" x="190.869141"/>
       <use xlink:href="#DejaVuSans-2d" x="254.492188"/>
       <use xlink:href="#DejaVuSans-30" x="290.576172"/>
       <use xlink:href="#DejaVuSans-31" x="354.199219"/>
      </g>
     </g>
    </g>
    <g id="xtick_4">
     <g id="line2d_7">
      <path d="M 437.697481 495.768801 
L 437.697481 42.396875 
" clip-path="url(#p6e401e42ca)" style="fill: none; stroke-dasharray: 2.96,1.28; stroke-dashoffset: 0; stroke: #b0b0b0; stroke-opacity: 0.7; stroke-width: 0.8"/>
     </g>
     <g id="line2d_8">
      <g>
       <use xlink:href="#md9b0520e96" x="437.697481" y="495.768801" style="stroke: #000000; stroke-width: 0.8"/>
      </g>
     </g>
     <g id="text_4">
      <!-- 2019-01 -->
      <g transform="translate(393.027696 535.735016) rotate(-30) scale(0.12 -0.12)">
       <defs>
        <path id="DejaVuSans-39" d="M 703 97 
L 703 672 
Q 941 559 1184 500 
Q 1428 441 1663 441 
Q 2288 441 2617 861 
Q 2947 1281 2994 2138 
Q 2813 1869 2534 1725 
Q 2256 1581 1919 1581 
Q 1219 1581 811 2004 
Q 403 2428 403 3163 
Q 403 3881 828 4315 
Q 1253 4750 1959 4750 
Q 2769 4750 3195 4129 
Q 3622 3509 3622 2328 
Q 3622 1225 3098 567 
Q 2575 -91 1691 -91 
Q 1453 -91 1209 -44 
Q 966 3 703 97 
z
M 1959 2075 
Q 2384 2075 2632 2365 
Q 2881 2656 2881 3163 
Q 2881 3666 2632 3958 
Q 2384 4250 1959 4250 
Q 1534 4250 1286 3958 
Q 1038 3666 1038 3163 
Q 1038 2656 1286 2365 
Q 1534 2075 1959 2075 
z
" transform="scale(0.015625)"/>
       </defs>
       <use xlink:href="#DejaVuSans-32"/>
       <use xlink:href="#DejaVuSans-30" x="63.623047"/>
       <use xlink:href="#DejaVuSans-31" x="127.246094"/>
       <use xlink:href="#DejaVuSans-39" x="190.869141"/>
       <use xlink:href="#DejaVuSans-2d" x="254.492188"/>
       <use xlink:href="#DejaVuSans-30" x="290.576172"/>
       <use xlink:href="#DejaVuSans-31" x="354.199219"/>
      </g>
     </g>
    </g>
    <g id="xtick_5">
     <g id="line2d_9">
      <path d="M 553.965578 495.768801 
L 553.965578 42.396875 
" clip-path="url(#p6e401e42ca)" style="fill: none; stroke-dasharray: 2.96,1.28; stroke-dashoffset: 0; stroke: #b0b0b0; stroke-opacity: 0.7; stroke-width: 0.8"/>
     </g>
     <g id="line2d_10">
      <g>
       <use xlink:href="#md9b0520e96" x="553.965578" y="495.768801" style="stroke: #000000; stroke-width: 0.8"/>
      </g>
     </g>
     <g id="text_5">
      <!-- 2020-01 -->
      <g transform="translate(509.295793 535.735016) rotate(-30) scale(0.12 -0.12)">
       <use xlink:href="#DejaVuSans-32"/>
       <use xlink:href="#DejaVuSans-30" x="63.623047"/>
       <use xlink:href="#DejaVuSans-32" x="127.246094"/>
       <use xlink:href="#DejaVuSans-30" x="190.869141"/>
       <use xlink:href="#DejaVuSans-2d" x="254.492188"/>
       <use xlink:href="#DejaVuSans-30" x="290.576172"/>
       <use xlink:href="#DejaVuSans-31" x="354.199219"/>
      </g>
     </g>
    </g>
    <g id="xtick_6">
     <g id="line2d_11">
      <path d="M 670.552219 495.768801 
L 670.552219 42.396875 
" clip-path="url(#p6e401e42ca)" style="fill: none; stroke-dasharray: 2.96,1.28; stroke-dashoffset: 0; stroke: #b0b0b0; stroke-opacity: 0.7; stroke-width: 0.8"/>
     </g>
     <g id="line2d_12">
      <g>
       <use xlink:href="#md9b0520e96" x="670.552219" y="495.768801" style="stroke: #000000; stroke-width: 0.8"/>
      </g>
     </g>
     <g id="text_6">
      <!-- 2021-01 -->
      <g transform="translate(625.882434 535.735016) rotate(-30) scale(0.12 -0.12)">
       <use xlink:href="#DejaVuSans-32"/>
       <use xlink:href="#DejaVuSans-30" x="63.623047"/>
       <use xlink:href="#DejaVuSans-32" x="127.246094"/>
       <use xlink:href="#DejaVuSans-31" x="190.869141"/>
       <use xlink:href="#DejaVuSans-2d" x="254.492188"/>
       <use xlink:href="#DejaVuSans-30" x="290.576172"/>
       <use xlink:href="#DejaVuSans-31" x="354.199219"/>
      </g>
     </g>
    </g>
    <g id="xtick_7">
     <g id="line2d_13">
      <path d="M 786.820316 495.768801 
L 786.820316 42.396875 
" clip-path="url(#p6e401e42ca)" style="fill: none; stroke-dasharray: 2.96,1.28; stroke-dashoffset: 0; stroke: #b0b0b0; stroke-opacity: 0.7; stroke-width: 0.8"/>
     </g>
     <g id="line2d_14">
      <g>
       <use xlink:href="#md9b0520e96" x="786.820316" y="495.768801" style="stroke: #000000; stroke-width: 0.8"/>
      </g>
     </g>
     <g id="text_7">
      <!-- 2022-01 -->
      <g transform="translate(742.150531 535.735016) rotate(-30) scale(0.12 -0.12)">
       <use xlink:href="#DejaVuSans-32"/>
       <use xlink:href="#DejaVuSans-30" x="63.623047"/>
       <use xlink:href="#DejaVuSans-32" x="127.246094"/>
       <use xlink:href="#DejaVuSans-32" x="190.869141"/>
       <use xlink:href="#DejaVuSans-2d" x="254.492188"/>
       <use xlink:href="#DejaVuSans-30" x="290.576172"/>
       <use xlink:href="#DejaVuSans-31" x="354.199219"/>
      </g>
     </g>
    </g>
    <g id="xtick_8">
     <g id="line2d_15">
      <path d="M 903.088414 495.768801 
L 903.088414 42.396875 
" clip-path="url(#p6e401e42ca)" style="fill: none; stroke-dasharray: 2.96,1.28; stroke-dashoffset: 0; stroke: #b0b0b0; stroke-opacity: 0.7; stroke-width: 0.8"/>
     </g>
     <g id="line2d_16">
      <g>
       <use xlink:href="#md9b0520e96" x="903.088414" y="495.768801" style="stroke: #000000; stroke-width: 0.8"/>
      </g>
     </g>
     <g id="text_8">
      <!-- 2023-01 -->
      <g transform="translate(858.418629 535.735016) rotate(-30) scale(0.12 -0.12)">
       <defs>
        <path id="DejaVuSans-33" d="M 2597 2516 
Q 3050 2419 3304 2112 
Q 3559 1806 3559 1356 
Q 3559 666 3084 287 
Q 2609 -91 1734 -91 
Q 1441 -91 1130 -33 
Q 819 25 488 141 
L 488 750 
Q 750 597 1062 519 
Q 1375 441 1716 441 
Q 2309 441 2620 675 
Q 2931 909 2931 1356 
Q 2931 1769 2642 2001 
Q 2353 2234 1838 2234 
L 1294 2234 
L 1294 2753 
L 1863 2753 
Q 2328 2753 2575 2939 
Q 2822 3125 2822 3475 
Q 2822 3834 2567 4026 
Q 2313 4219 1838 4219 
Q 1578 4219 1281 4162 
Q 984 4106 628 3988 
L 628 4550 
Q 988 4650 1302 4700 
Q 1616 4750 1894 4750 
Q 2613 4750 3031 4423 
Q 3450 4097 3450 3541 
Q 3450 3153 3228 2886 
Q 3006 2619 2597 2516 
z
" transform="scale(0.015625)"/>
       </defs>
       <use xlink:href="#DejaVuSans-32"/>
       <use xlink:href="#DejaVuSans-30" x="63.623047"/>
       <use xlink:href="#DejaVuSans-32" x="127.246094"/>
       <use xlink:href="#DejaVuSans-33" x="190.869141"/>
       <use xlink:href="#DejaVuSans-2d" x="254.492188"/>
       <use xlink:href="#DejaVuSans-30" x="290.576172"/>
       <use xlink:href="#DejaVuSans-31" x="354.199219"/>
      </g>
     </g>
    </g>
    <g id="xtick_9">
     <g id="line2d_17">
      <path d="M 1019.356511 495.768801 
L 1019.356511 42.396875 
" clip-path="url(#p6e401e42ca)" style="fill: none; stroke-dasharray: 2.96,1.28; stroke-dashoffset: 0; stroke: #b0b0b0; stroke-opacity: 0.7; stroke-width: 0.8"/>
     </g>
     <g id="line2d_18">
      <g>
       <use xlink:href="#md9b0520e96" x="1019.356511" y="495.768801" style="stroke: #000000; stroke-width: 0.8"/>
      </g>
     </g>
     <g id="text_9">
      <!-- 2024-01 -->
      <g transform="translate(974.686726 535.735016) rotate(-30) scale(0.12 -0.12)">
       <defs>
        <path id="DejaVuSans-34" d="M 2419 4116 
L 825 1625 
L 2419 1625 
L 2419 4116 
z
M 2253 4666 
L 3047 4666 
L 3047 1625 
L 3713 1625 
L 3713 1100 
L 3047 1100 
L 3047 0 
L 2419 0 
L 2419 1100 
L 313 1100 
L 313 1709 
L 2253 4666 
z
" transform="scale(0.015625)"/>
       </defs>
       <use xlink:href="#DejaVuSans-32"/>
       <use xlink:href="#DejaVuSans-30" x="63.623047"/>
       <use xlink:href="#DejaVuSans-32" x="127.246094"/>
       <use xlink:href="#DejaVuSans-34" x="190.869141"/>
       <use xlink:href="#DejaVuSans-2d" x="254.492188"/>
       <use xlink:href="#DejaVuSans-30" x="290.576172"/>
       <use xlink:href="#DejaVuSans-31" x="354.199219"/>
      </g>
     </g>
    </g>
    <g id="xtick_10">
     <g id="line2d_19">
      <path d="M 1135.943151 495.768801 
L 1135.943151 42.396875 
" clip-path="url(#p6e401e42ca)" style="fill: none; stroke-dasharray: 2.96,1.28; stroke-dashoffset: 0; stroke: #b0b0b0; stroke-opacity: 0.7; stroke-width: 0.8"/>
     </g>
     <g id="line2d_20">
      <g>
       <use xlink:href="#md9b0520e96" x="1135.943151" y="495.768801" style="stroke: #000000; stroke-width: 0.8"/>
      </g>
     </g>
     <g id="text_10">
      <!-- 2025-01 -->
      <g transform="translate(1091.273366 535.735016) rotate(-30) scale(0.12 -0.12)">
       <defs>
        <path id="DejaVuSans-35" d="M 691 4666 
L 3169 4666 
L 3169 4134 
L 1269 4134 
L 1269 2991 
Q 1406 3038 1543 3061 
Q 1681 3084 1819 3084 
Q 2600 3084 3056 2656 
Q 3513 2228 3513 1497 
Q 3513 744 3044 326 
Q 2575 -91 1722 -91 
Q 1428 -91 1123 -41 
Q 819 9 494 109 
L 494 744 
Q 775 591 1075 516 
Q 1375 441 1709 441 
Q 2250 441 2565 725 
Q 2881 1009 2881 1497 
Q 2881 1984 2565 2268 
Q 2250 2553 1709 2553 
Q 1456 2553 1204 2497 
Q 953 2441 691 2322 
L 691 4666 
z
" transform="scale(0.015625)"/>
       </defs>
       <use xlink:href="#DejaVuSans-32"/>
       <use xlink:href="#DejaVuSans-30" x="63.623047"/>
       <use xlink:href="#DejaVuSans-32" x="127.246094"/>
       <use xlink:href="#DejaVuSans-35" x="190.869141"/>
       <use xlink:href="#DejaVuSans-2d" x="254.492188"/>
       <use xlink:href="#DejaVuSans-30" x="290.576172"/>
       <use xlink:href="#DejaVuSans-31" x="354.199219"/>
      </g>
     </g>
    </g>
    <g id="text_11">
     <!-- Week -->
     <g transform="translate(579.861562 558.534103) scale(0.14 -0.14)">
      <defs>
       <path id="DejaVuSans-57" d="M 213 4666 
L 850 4666 
L 1831 722 
L 2809 4666 
L 3519 4666 
L 4500 722 
L 5478 4666 
L 6119 4666 
L 4947 0 
L 4153 0 
L 3169 4050 
L 2175 0 
L 1381 0 
L 213 4666 
z
" transform="scale(0.015625)"/>
       <path id="DejaVuSans-65" d="M 3597 1894 
L 3597 1613 
L 953 1613 
Q 991 1019 1311 708 
Q 1631 397 2203 397 
Q 2534 397 2845 478 
Q 3156 559 3463 722 
L 3463 178 
Q 3153 47 2828 -22 
Q 2503 -91 2169 -91 
Q 1331 -91 842 396 
Q 353 884 353 1716 
Q 353 2575 817 3079 
Q 1281 3584 2069 3584 
Q 2775 3584 3186 3129 
Q 3597 2675 3597 1894 
z
M 3022 2063 
Q 3016 2534 2758 2815 
Q 2500 3097 2075 3097 
Q 1594 3097 1305 2825 
Q 1016 2553 972 2059 
L 3022 2063 
z
" transform="scale(0.015625)"/>
       <path id="DejaVuSans-6b" d="M 581 4863 
L 1159 4863 
L 1159 1991 
L 2875 3500 
L 3609 3500 
L 1753 1863 
L 3688 0 
L 2938 0 
L 1159 1709 
L 1159 0 
L 581 0 
L 581 4863 
z
" transform="scale(0.015625)"/>
      </defs>
      <use xlink:href="#DejaVuSans-57"/>
      <use xlink:href="#DejaVuSans-65" x="93.001953"/>
      <use xlink:href="#DejaVuSans-65" x="154.525391"/>
      <use xlink:href="#DejaVuSans-6b" x="216.048828"/>
     </g>
    </g>
   </g>
   <g id="matplotlib.axis_2">
    <g id="ytick_1">
     <g id="line2d_21">
      <path d="M 60.654375 475.767991 
L 1137.424375 475.767991 
" clip-path="url(#p6e401e42ca)" style="fill: none; stroke-dasharray: 2.96,1.28; stroke-dashoffset: 0; stroke: #b0b0b0; stroke-opacity: 0.7; stroke-width: 0.8"/>
     </g>
     <g id="line2d_22">
      <defs>
       <path id="m5fcf67e443" d="M 0 0 
L -3.5 0 
" style="stroke: #000000; stroke-width: 0.8"/>
      </defs>
      <g>
       <use xlink:href="#m5fcf67e443" x="60.654375" y="475.767991" style="stroke: #000000; stroke-width: 0.8"/>
      </g>
     </g>
     <g id="text_12">
      <!-- 0 -->
      <g transform="translate(46.019375 480.327053) scale(0.12 -0.12)">
       <use xlink:href="#DejaVuSans-30"/>
      </g>
     </g>
    </g>
    <g id="ytick_2">
     <g id="line2d_23">
      <path d="M 60.654375 415.067505 
L 1137.424375 415.067505 
" clip-path="url(#p6e401e42ca)" style="fill: none; stroke-dasharray: 2.96,1.28; stroke-dashoffset: 0; stroke: #b0b0b0; stroke-opacity: 0.7; stroke-width: 0.8"/>
     </g>
     <g id="line2d_24">
      <g>
       <use xlink:href="#m5fcf67e443" x="60.654375" y="415.067505" style="stroke: #000000; stroke-width: 0.8"/>
      </g>
     </g>
     <g id="text_13">
      <!-- 100 -->
      <g transform="translate(30.749375 419.626568) scale(0.12 -0.12)">
       <use xlink:href="#DejaVuSans-31"/>
       <use xlink:href="#DejaVuSans-30" x="63.623047"/>
       <use xlink:href="#DejaVuSans-30" x="127.246094"/>
      </g>
     </g>
    </g>
    <g id="ytick_3">
     <g id="line2d_25">
      <path d="M 60.654375 354.36702 
L 1137.424375 354.36702 
" clip-path="url(#p6e401e42ca)" style="fill: none; stroke-dasharray: 2.96,1.28; stroke-dashoffset: 0; stroke: #b0b0b0; stroke-opacity: 0.7; stroke-width: 0.8"/>
     </g>
     <g id="line2d_26">
      <g>
       <use xlink:href="#m5fcf67e443" x="60.654375" y="354.36702" style="stroke: #000000; stroke-width: 0.8"/>
      </g>
     </g>
     <g id="text_14">
      <!-- 200 -->
      <g transform="translate(30.749375 358.926082) scale(0.12 -0.12)">
       <use xlink:href="#DejaVuSans-32"/>
       <use xlink:href="#DejaVuSans-30" x="63.623047"/>
       <use xlink:href="#DejaVuSans-30" x="127.246094"/>
      </g>
     </g>
    </g>
    <g id="ytick_4">
     <g id="line2d_27">
      <path d="M 60.654375 293.666534 
L 1137.424375 293.666534 
" clip-path="url(#p6e401e42ca)" style="fill: none; stroke-dasharray: 2.96,1.28; stroke-dashoffset: 0; stroke: #b0b0b0; stroke-opacity: 0.7; stroke-width: 0.8"/>
     </g>
     <g id="line2d_28">
      <g>
       <use xlink:href="#m5fcf67e443" x="60.654375" y="293.666534" style="stroke: #000000; stroke-width: 0.8"/>
      </g>
     </g>
     <g id="text_15">
      <!-- 300 -->
      <g transform="translate(30.749375 298.225597) scale(0.12 -0.12)">
       <use xlink:href="#DejaVuSans-33"/>
       <use xlink:href="#DejaVuSans-30" x="63.623047"/>
       <use xlink:href="#DejaVuSans-30" x="127.246094"/>
      </g>
     </g>
    </g>
    <g id="ytick_5">
     <g id="line2d_29">
      <path d="M 60.654375 232.966049 
L 1137.424375 232.966049 
" clip-path="url(#p6e401e42ca)" style="fill: none; stroke-dasharray: 2.96,1.28; stroke-dashoffset: 0; stroke: #b0b0b0; stroke-opacity: 0.7; stroke-width: 0.8"/>
     </g>
     <g id="line2d_30">
      <g>
       <use xlink:href="#m5fcf67e443" x="60.654375" y="232.966049" style="stroke: #000000; stroke-width: 0.8"/>
      </g>
     </g>
     <g id="text_16">
      <!-- 400 -->
      <g transform="translate(30.749375 237.525111) scale(0.12 -0.12)">
       <use xlink:href="#DejaVuSans-34"/>
       <use xlink:href="#DejaVuSans-30" x="63.623047"/>
       <use xlink:href="#DejaVuSans-30" x="127.246094"/>
      </g>
     </g>
    </g>
    <g id="ytick_6">
     <g id="line2d_31">
      <path d="M 60.654375 172.265564 
L 1137.424375 172.265564 
" clip-path="url(#p6e401e42ca)" style="fill: none; stroke-dasharray: 2.96,1.28; stroke-dashoffset: 0; stroke: #b0b0b0; stroke-opacity: 0.7; stroke-width: 0.8"/>
     </g>
     <g id="line2d_32">
      <g>
       <use xlink:href="#m5fcf67e443" x="60.654375" y="172.265564" style="stroke: #000000; stroke-width: 0.8"/>
      </g>
     </g>
     <g id="text_17">
      <!-- 500 -->
      <g transform="translate(30.749375 176.824626) scale(0.12 -0.12)">
       <use xlink:href="#DejaVuSans-35"/>
       <use xlink:href="#DejaVuSans-30" x="63.623047"/>
       <use xlink:href="#DejaVuSans-30" x="127.246094"/>
      </g>
     </g>
    </g>
    <g id="ytick_7">
     <g id="line2d_33">
      <path d="M 60.654375 111.565078 
L 1137.424375 111.565078 
" clip-path="url(#p6e401e42ca)" style="fill: none; stroke-dasharray: 2.96,1.28; stroke-dashoffset: 0; stroke: #b0b0b0; stroke-opacity: 0.7; stroke-width: 0.8"/>
     </g>
     <g id="line2d_34">
      <g>
       <use xlink:href="#m5fcf67e443" x="60.654375" y="111.565078" style="stroke: #000000; stroke-width: 0.8"/>
      </g>
     </g>
     <g id="text_18">
      <!-- 600 -->
      <g transform="translate(30.749375 116.124141) scale(0.12 -0.12)">
       <use xlink:href="#DejaVuSans-36"/>
       <use xlink:href="#DejaVuSans-30" x="63.623047"/>
       <use xlink:href="#DejaVuSans-30" x="127.246094"/>
      </g>
     </g>
    </g>
    <g id="ytick_8">
     <g id="line2d_35">
      <path d="M 60.654375 50.864593 
L 1137.424375 50.864593 
" clip-path="url(#p6e401e42ca)" style="fill: none; stroke-dasharray: 2.96,1.28; stroke-dashoffset: 0; stroke: #b0b0b0; stroke-opacity: 0.7; stroke-width: 0.8"/>
     </g>
     <g id="line2d_36">
      <g>
       <use xlink:href="#m5fcf67e443" x="60.654375" y="50.864593" style="stroke: #000000; stroke-width: 0.8"/>
      </g>
     </g>
     <g id="text_19">
      <!-- 700 -->
      <g transform="translate(30.749375 55.423655) scale(0.12 -0.12)">
       <use xlink:href="#DejaVuSans-37"/>
       <use xlink:href="#DejaVuSans-30" x="63.623047"/>
       <use xlink:href="#DejaVuSans-30" x="127.246094"/>
      </g>
     </g>
    </g>
    <g id="text_20">
     <!-- Number of Transactions -->
     <g transform="translate(17.837813 352.086432) rotate(-90) scale(0.14 -0.14)">
      <defs>
       <path id="DejaVuSans-4e" d="M 628 4666 
L 1478 4666 
L 3547 763 
L 3547 4666 
L 4159 4666 
L 4159 0 
L 3309 0 
L 1241 3903 
L 1241 0 
L 628 0 
L 628 4666 
z
" transform="scale(0.015625)"/>
       <path id="DejaVuSans-75" d="M 544 1381 
L 544 3500 
L 1119 3500 
L 1119 1403 
Q 1119 906 1312 657 
Q 1506 409 1894 409 
Q 2359 409 2629 706 
Q 2900 1003 2900 1516 
L 2900 3500 
L 3475 3500 
L 3475 0 
L 2900 0 
L 2900 538 
Q 2691 219 2414 64 
Q 2138 -91 1772 -91 
Q 1169 -91 856 284 
Q 544 659 544 1381 
z
M 1991 3584 
L 1991 3584 
z
" transform="scale(0.015625)"/>
       <path id="DejaVuSans-6d" d="M 3328 2828 
Q 3544 3216 3844 3400 
Q 4144 3584 4550 3584 
Q 5097 3584 5394 3201 
Q 5691 2819 5691 2113 
L 5691 0 
L 5113 0 
L 5113 2094 
Q 5113 2597 4934 2840 
Q 4756 3084 4391 3084 
Q 3944 3084 3684 2787 
Q 3425 2491 3425 1978 
L 3425 0 
L 2847 0 
L 2847 2094 
Q 2847 2600 2669 2842 
Q 2491 3084 2119 3084 
Q 1678 3084 1418 2786 
Q 1159 2488 1159 1978 
L 1159 0 
L 581 0 
L 581 3500 
L 1159 3500 
L 1159 2956 
Q 1356 3278 1631 3431 
Q 1906 3584 2284 3584 
Q 2666 3584 2933 3390 
Q 3200 3197 3328 2828 
z
" transform="scale(0.015625)"/>
       <path id="DejaVuSans-62" d="M 3116 1747 
Q 3116 2381 2855 2742 
Q 2594 3103 2138 3103 
Q 1681 3103 1420 2742 
Q 1159 2381 1159 1747 
Q 1159 1113 1420 752 
Q 1681 391 2138 391 
Q 2594 391 2855 752 
Q 3116 1113 3116 1747 
z
M 1159 2969 
Q 1341 3281 1617 3432 
Q 1894 3584 2278 3584 
Q 2916 3584 3314 3078 
Q 3713 2572 3713 1747 
Q 3713 922 3314 415 
Q 2916 -91 2278 -91 
Q 1894 -91 1617 61 
Q 1341 213 1159 525 
L 1159 0 
L 581 0 
L 581 4863 
L 1159 4863 
L 1159 2969 
z
" transform="scale(0.015625)"/>
       <path id="DejaVuSans-72" d="M 2631 2963 
Q 2534 3019 2420 3045 
Q 2306 3072 2169 3072 
Q 1681 3072 1420 2755 
Q 1159 2438 1159 1844 
L 1159 0 
L 581 0 
L 581 3500 
L 1159 3500 
L 1159 2956 
Q 1341 3275 1631 3429 
Q 1922 3584 2338 3584 
Q 2397 3584 2469 3576 
Q 2541 3569 2628 3553 
L 2631 2963 
z
" transform="scale(0.015625)"/>
       <path id="DejaVuSans-20" transform="scale(0.015625)"/>
       <path id="DejaVuSans-6f" d="M 1959 3097 
Q 1497 3097 1228 2736 
Q 959 2375 959 1747 
Q 959 1119 1226 758 
Q 1494 397 1959 397 
Q 2419 397 2687 759 
Q 2956 1122 2956 1747 
Q 2956 2369 2687 2733 
Q 2419 3097 1959 3097 
z
M 1959 3584 
Q 2709 3584 3137 3096 
Q 3566 2609 3566 1747 
Q 3566 888 3137 398 
Q 2709 -91 1959 -91 
Q 1206 -91 779 398 
Q 353 888 353 1747 
Q 353 2609 779 3096 
Q 1206 3584 1959 3584 
z
" transform="scale(0.015625)"/>
       <path id="DejaVuSans-66" d="M 2375 4863 
L 2375 4384 
L 1825 4384 
Q 1516 4384 1395 4259 
Q 1275 4134 1275 3809 
L 1275 3500 
L 2222 3500 
L 2222 3053 
L 1275 3053 
L 1275 0 
L 697 0 
L 697 3053 
L 147 3053 
L 147 3500 
L 697 3500 
L 697 3744 
Q 697 4328 969 4595 
Q 1241 4863 1831 4863 
L 2375 4863 
z
" transform="scale(0.015625)"/>
       <path id="DejaVuSans-54" d="M -19 4666 
L 3928 4666 
L 3928 4134 
L 2272 4134 
L 2272 0 
L 1638 0 
L 1638 4134 
L -19 4134 
L -19 4666 
z
" transform="scale(0.015625)"/>
       <path id="DejaVuSans-61" d="M 2194 1759 
Q 1497 1759 1228 1600 
Q 959 1441 959 1056 
Q 959 750 1161 570 
Q 1363 391 1709 391 
Q 2188 391 2477 730 
Q 2766 1069 2766 1631 
L 2766 1759 
L 2194 1759 
z
M 3341 1997 
L 3341 0 
L 2766 0 
L 2766 531 
Q 2569 213 2275 61 
Q 1981 -91 1556 -91 
Q 1019 -91 701 211 
Q 384 513 384 1019 
Q 384 1609 779 1909 
Q 1175 2209 1959 2209 
L 2766 2209 
L 2766 2266 
Q 2766 2663 2505 2880 
Q 2244 3097 1772 3097 
Q 1472 3097 1187 3025 
Q 903 2953 641 2809 
L 641 3341 
Q 956 3463 1253 3523 
Q 1550 3584 1831 3584 
Q 2591 3584 2966 3190 
Q 3341 2797 3341 1997 
z
" transform="scale(0.015625)"/>
       <path id="DejaVuSans-6e" d="M 3513 2113 
L 3513 0 
L 2938 0 
L 2938 2094 
Q 2938 2591 2744 2837 
Q 2550 3084 2163 3084 
Q 1697 3084 1428 2787 
Q 1159 2491 1159 1978 
L 1159 0 
L 581 0 
L 581 3500 
L 1159 3500 
L 1159 2956 
Q 1366 3272 1645 3428 
Q 1925 3584 2291 3584 
Q 2894 3584 3203 3211 
Q 3513 2838 3513 2113 
z
" transform="scale(0.015625)"/>
       <path id="DejaVuSans-73" d="M 2834 3397 
L 2834 2853 
Q 2591 2978 2328 3040 
Q 2066 3103 1784 3103 
Q 1356 3103 1142 2972 
Q 928 2841 928 2578 
Q 928 2378 1081 2264 
Q 1234 2150 1697 2047 
L 1894 2003 
Q 2506 1872 2764 1633 
Q 3022 1394 3022 966 
Q 3022 478 2636 193 
Q 2250 -91 1575 -91 
Q 1294 -91 989 -36 
Q 684 19 347 128 
L 347 722 
Q 666 556 975 473 
Q 1284 391 1588 391 
Q 1994 391 2212 530 
Q 2431 669 2431 922 
Q 2431 1156 2273 1281 
Q 2116 1406 1581 1522 
L 1381 1569 
Q 847 1681 609 1914 
Q 372 2147 372 2553 
Q 372 3047 722 3315 
Q 1072 3584 1716 3584 
Q 2034 3584 2315 3537 
Q 2597 3491 2834 3397 
z
" transform="scale(0.015625)"/>
       <path id="DejaVuSans-63" d="M 3122 3366 
L 3122 2828 
Q 2878 2963 2633 3030 
Q 2388 3097 2138 3097 
Q 1578 3097 1268 2742 
Q 959 2388 959 1747 
Q 959 1106 1268 751 
Q 1578 397 2138 397 
Q 2388 397 2633 464 
Q 2878 531 3122 666 
L 3122 134 
Q 2881 22 2623 -34 
Q 2366 -91 2075 -91 
Q 1284 -91 818 406 
Q 353 903 353 1747 
Q 353 2603 823 3093 
Q 1294 3584 2113 3584 
Q 2378 3584 2631 3529 
Q 2884 3475 3122 3366 
z
" transform="scale(0.015625)"/>
       <path id="DejaVuSans-74" d="M 1172 4494 
L 1172 3500 
L 2356 3500 
L 2356 3053 
L 1172 3053 
L 1172 1153 
Q 1172 725 1289 603 
Q 1406 481 1766 481 
L 2356 481 
L 2356 0 
L 1766 0 
Q 1100 0 847 248 
Q 594 497 594 1153 
L 594 3053 
L 172 3053 
L 172 3500 
L 594 3500 
L 594 4494 
L 1172 4494 
z
" transform="scale(0.015625)"/>
       <path id="DejaVuSans-69" d="M 603 3500 
L 1178 3500 
L 1178 0 
L 603 0 
L 603 3500 
z
M 603 4863 
L 1178 4863 
L 1178 4134 
L 603 4134 
L 603 4863 
z
" transform="scale(0.015625)"/>
      </defs>
      <use xlink:href="#DejaVuSans-4e"/>
      <use xlink:href="#DejaVuSans-75" x="74.804688"/>
      <use xlink:href="#DejaVuSans-6d" x="138.183594"/>
      <use xlink:href="#DejaVuSans-62" x="235.595703"/>
      <use xlink:href="#DejaVuSans-65" x="299.072266"/>
      <use xlink:href="#DejaVuSans-72" x="360.595703"/>
      <use xlink:href="#DejaVuSans-20" x="401.708984"/>
      <use xlink:href="#DejaVuSans-6f" x="433.496094"/>
      <use xlink:href="#DejaVuSans-66" x="494.677734"/>
      <use xlink:href="#DejaVuSans-20" x="529.882812"/>
      <use xlink:href="#DejaVuSans-54" x="561.669922"/>
      <use xlink:href="#DejaVuSans-72" x="608.003906"/>
      <use xlink:href="#DejaVuSans-61" x="649.117188"/>
      <use xlink:href="#DejaVuSans-6e" x="710.396484"/>
      <use xlink:href="#DejaVuSans-73" x="773.775391"/>
      <use xlink:href="#DejaVuSans-61" x="825.875"/>
      <use xlink:href="#DejaVuSans-63" x="887.154297"/>
      <use xlink:href="#DejaVuSans-74" x="942.134766"/>
      <use xlink:href="#DejaVuSans-69" x="981.34375"/>
      <use xlink:href="#DejaVuSans-6f" x="1009.126953"/>
      <use xlink:href="#DejaVuSans-6e" x="1070.308594"/>
      <use xlink:href="#DejaVuSans-73" x="1133.6875"/>
     </g>
    </g>
   </g>
   <g id="line2d_37">
    <path d="M 526.570903 407.176442 
L 528.800702 426.600597 
L 531.030502 428.421612 
L 533.260301 449.059777 
L 535.4901 447.238763 
L 537.719899 442.382724 
L 539.949698 459.985864 
L 542.179497 462.413884 
L 546.639095 475.160986 
L 548.868895 475.160986 
L 573.396685 472.732966 
L 575.626484 455.129826 
L 577.856283 469.090937 
L 580.086082 475.160986 
L 582.315882 471.518957 
L 584.545681 469.697942 
L 586.77548 466.055913 
L 589.005279 470.304947 
L 591.235078 475.160986 
L 593.464877 469.697942 
L 595.694676 469.697942 
L 597.924475 465.448908 
L 600.154275 466.662918 
L 602.384074 468.483932 
L 604.613873 431.456636 
L 606.843672 422.351564 
L 609.073471 453.308811 
L 611.30327 461.199874 
L 613.533069 459.37886 
L 615.762868 421.137554 
L 617.992668 426.600597 
L 620.222467 418.709534 
L 622.452266 390.787311 
L 624.682065 396.250355 
L 626.911864 370.149146 
L 629.141663 392.001321 
L 631.371462 358.009049 
L 633.601262 389.573301 
L 635.831061 399.285379 
L 638.06086 385.324267 
L 640.290659 369.542141 
L 642.520458 365.900112 
L 644.750257 367.721127 
L 646.980056 399.285379 
L 649.209855 398.071369 
L 651.439655 323.409772 
L 653.669454 410.818471 
L 655.899253 363.472093 
L 658.129052 416.88852 
L 660.358851 328.265811 
L 662.58865 379.861224 
L 664.818449 363.472093 
L 667.048248 432.063641 
L 669.278048 473.339971 
L 671.507847 353.15301 
L 673.737646 392.001321 
L 675.967445 388.359292 
L 678.197244 436.312675 
L 680.427043 369.542141 
L 682.656842 416.88852 
L 684.886642 411.425476 
L 687.116441 424.172578 
L 689.34624 370.149146 
L 691.576039 407.176442 
L 693.805838 401.713398 
L 696.035637 431.456636 
L 698.265436 428.421612 
L 700.495235 395.036345 
L 702.725035 385.324267 
L 704.954834 410.211466 
L 707.184633 410.818471 
L 709.414432 355.58103 
L 711.644231 387.145282 
L 713.87403 399.285379 
L 716.103829 416.88852 
L 718.333628 350.724991 
L 720.563428 376.826199 
L 722.793227 344.047937 
L 725.023026 402.320403 
L 727.252825 367.721127 
L 729.482624 361.651078 
L 731.712423 353.760015 
L 733.942222 378.040209 
L 736.172022 375.005185 
L 738.401821 282.740447 
L 740.63162 333.12185 
L 742.861419 327.051801 
L 745.091218 337.370884 
L 747.321017 285.775471 
L 749.550816 304.592622 
L 751.780615 313.697695 
L 754.010415 260.888272 
L 756.240214 191.082714 
L 758.470013 279.705423 
L 760.699812 281.526437 
L 762.929611 297.915568 
L 765.15941 261.495277 
L 767.389209 168.623534 
L 769.619008 267.565326 
L 771.848808 249.35518 
L 774.078607 220.218947 
L 776.308406 143.129331 
L 778.538205 230.53803 
L 780.768004 215.362908 
L 782.997803 395.036345 
L 785.227602 426.600597 
L 787.457402 186.83368 
L 789.687201 261.495277 
L 791.917 328.872816 
L 794.146799 378.040209 
L 796.376598 233.573054 
L 798.606397 280.919432 
L 800.836196 307.627646 
L 803.065995 293.666534 
L 805.295795 206.86484 
L 807.525594 274.242379 
L 809.755393 277.884408 
L 811.985192 263.923297 
L 814.214991 273.028369 
L 816.44479 237.215083 
L 818.674589 308.841656 
L 820.904388 249.35518 
L 823.134188 215.969913 
L 825.363987 202.615806 
L 827.593786 184.405661 
L 829.823585 208.685855 
L 832.053384 194.117738 
L 834.283183 219.611942 
L 836.512982 230.53803 
L 838.742782 209.29286 
L 840.972581 262.102282 
L 843.20238 263.923297 
L 845.432179 262.102282 
L 847.661978 280.312428 
L 849.891777 310.055665 
L 852.121576 230.53803 
L 856.581175 231.752039 
L 858.810974 265.744311 
L 861.040773 206.257835 
L 863.270572 263.923297 
L 865.500371 195.331748 
L 867.73017 247.534165 
L 869.959969 279.098418 
L 872.189768 195.938753 
L 874.419568 227.503005 
L 876.649367 253.604214 
L 878.879166 255.425229 
L 881.108965 203.829816 
L 883.338764 266.351316 
L 885.568563 217.183923 
L 887.798362 224.467981 
L 890.028161 239.036098 
L 892.257961 238.429093 
L 894.48776 200.794792 
L 896.717559 222.039962 
L 898.947358 310.66267 
L 901.177157 239.643102 
L 903.406956 283.347452 
L 905.636755 246.320156 
L 907.866555 257.246243 
L 910.096354 249.962185 
L 912.326153 259.674263 
L 914.555952 242.678127 
L 916.785751 240.250107 
L 919.01555 271.81436 
L 921.245349 158.911457 
L 923.475148 223.253971 
L 925.704948 234.180059 
L 927.934747 262.709287 
L 930.164546 263.923297 
L 932.394345 216.576918 
L 934.624144 248.14117 
L 936.853943 221.432957 
L 939.083742 166.195515 
L 941.313541 180.763632 
L 943.543341 226.896 
L 945.77314 236.608078 
L 948.002939 161.339476 
L 950.232738 259.674263 
L 952.462537 195.938753 
L 954.692336 245.106146 
L 956.922135 287.596486 
L 959.151935 221.432957 
L 961.381734 238.429093 
L 963.611533 294.880544 
L 965.841332 288.810496 
L 968.071131 231.752039 
L 970.30093 224.467981 
L 972.530729 257.246243 
L 974.760528 225.074986 
L 976.990328 239.036098 
L 979.220127 205.650831 
L 981.449926 134.631263 
L 983.679725 223.860976 
L 985.909524 231.145034 
L 988.139323 121.884161 
L 990.369122 128.561214 
L 992.598921 219.611942 
L 994.828721 171.658559 
L 997.05852 175.300588 
L 999.288319 197.152763 
L 1001.518118 180.763632 
L 1003.747917 195.331748 
L 1005.977716 217.790928 
L 1008.207515 109.744064 
L 1010.437315 120.063146 
L 1012.667114 218.397932 
L 1014.896913 239.036098 
L 1017.126712 199.580782 
L 1019.356511 181.370636 
L 1021.58631 246.927161 
L 1023.816109 232.966049 
L 1026.045908 163.160491 
L 1028.275708 242.071122 
L 1030.505507 200.794792 
L 1034.965105 290.63151 
L 1037.194904 170.444549 
L 1039.424703 275.456389 
L 1041.654502 327.658806 
L 1043.884301 344.047937 
L 1046.114101 307.627646 
L 1048.3439 314.911704 
L 1050.573699 358.009049 
L 1052.803498 372.577165 
L 1055.033297 336.156874 
L 1057.263096 361.044073 
L 1059.492895 382.896248 
L 1061.722695 368.935136 
L 1063.952494 390.787311 
L 1066.182293 397.464364 
L 1068.412092 402.320403 
L 1070.641891 427.207602 
L 1072.87169 411.425476 
L 1075.101489 429.635622 
L 1077.331288 436.91968 
L 1079.561088 438.740695 
L 1081.790887 472.125962 
L 1088.480284 475.160986 
L 1088.480284 475.160986 
" clip-path="url(#p6e401e42ca)" style="fill: none; stroke: #1f77b4; stroke-width: 2; stroke-linecap: square"/>
   </g>
   <g id="line2d_38">
    <path d="M 571.166886 454.522821 
L 573.396685 449.666782 
L 575.626484 459.985864 
L 577.856283 471.518957 
L 580.086082 464.234898 
L 582.315882 472.125962 
L 584.545681 473.339971 
L 586.77548 473.339971 
L 589.005279 470.304947 
L 591.235078 470.304947 
L 593.464877 453.915816 
L 595.694676 461.806879 
L 597.924475 472.732966 
L 600.154275 470.304947 
L 602.384074 469.090937 
L 604.613873 465.448908 
L 606.843672 455.129826 
L 609.073471 458.16485 
L 611.30327 463.627894 
L 613.533069 466.662918 
L 615.762868 460.592869 
L 617.992668 469.697942 
L 620.222467 454.522821 
L 622.452266 463.627894 
L 624.682065 462.413884 
L 626.911864 462.413884 
L 629.141663 461.806879 
L 631.371462 455.736831 
L 633.601262 465.448908 
L 635.831061 464.841903 
L 638.06086 466.055913 
L 640.290659 472.732966 
L 642.520458 464.841903 
L 644.750257 469.697942 
L 646.980056 471.518957 
L 649.209855 472.125962 
L 651.439655 472.125962 
L 653.669454 467.269923 
L 655.899253 472.125962 
L 658.129052 473.946976 
L 660.358851 473.946976 
L 662.58865 471.518957 
L 664.818449 467.876928 
L 667.048248 473.339971 
L 673.737646 474.553981 
L 675.967445 473.946976 
L 678.197244 475.160986 
L 680.427043 472.732966 
L 682.656842 471.518957 
L 684.886642 473.946976 
L 687.116441 474.553981 
L 689.34624 473.339971 
L 691.576039 474.553981 
L 693.805838 472.732966 
L 700.495235 473.946976 
L 702.725035 475.160986 
L 707.184633 475.160986 
L 709.414432 472.732966 
L 711.644231 469.090937 
L 713.87403 460.592869 
L 716.103829 466.662918 
L 718.333628 471.518957 
L 720.563428 472.732966 
L 722.793227 444.810743 
L 725.023026 471.518957 
L 727.252825 469.090937 
L 731.712423 473.946976 
L 733.942222 473.339971 
L 736.172022 469.697942 
L 738.401821 459.37886 
L 740.63162 470.304947 
L 742.861419 459.985864 
L 745.091218 464.234898 
L 747.321017 466.055913 
L 749.550816 464.841903 
L 751.780615 461.199874 
L 754.010415 468.483932 
L 756.240214 462.413884 
L 758.470013 467.269923 
L 760.699812 464.841903 
L 762.929611 459.985864 
L 765.15941 463.020889 
L 767.389209 470.911952 
L 769.619008 470.304947 
L 771.848808 466.662918 
L 774.078607 465.448908 
L 776.308406 470.304947 
L 778.538205 469.697942 
L 780.768004 467.269923 
L 782.997803 473.339971 
L 785.227602 473.946976 
L 787.457402 471.518957 
L 789.687201 470.304947 
L 791.917 473.339971 
L 796.376598 472.125962 
L 798.606397 466.662918 
L 800.836196 469.697942 
L 803.065995 472.125962 
L 805.295795 466.662918 
L 807.525594 467.876928 
L 809.755393 471.518957 
L 811.985192 468.483932 
L 814.214991 451.487797 
L 816.44479 469.697942 
L 818.674589 471.518957 
L 820.904388 470.911952 
L 823.134188 456.343835 
L 825.363987 466.055913 
L 829.823585 456.343835 
L 832.053384 465.448908 
L 834.283183 465.448908 
L 836.512982 448.452772 
L 838.742782 447.845767 
L 840.972581 461.806879 
L 843.20238 464.234898 
L 845.432179 471.518957 
L 847.661978 468.483932 
L 849.891777 470.911952 
L 852.121576 470.911952 
L 854.351375 466.055913 
L 856.581175 463.627894 
L 858.810974 466.662918 
L 861.040773 463.627894 
L 863.270572 464.841903 
L 865.500371 463.627894 
L 867.73017 467.269923 
L 869.959969 469.090937 
L 872.189768 466.055913 
L 874.419568 470.911952 
L 876.649367 466.662918 
L 878.879166 469.090937 
L 881.108965 467.876928 
L 883.338764 470.911952 
L 885.568563 469.697942 
L 887.798362 470.304947 
L 890.028161 464.841903 
L 892.257961 464.234898 
L 894.48776 470.304947 
L 898.947358 473.946976 
L 903.406956 471.518957 
L 905.636755 474.553981 
L 907.866555 470.304947 
L 910.096354 472.125962 
L 912.326153 470.911952 
L 914.555952 463.627894 
L 916.785751 471.518957 
L 919.01555 470.911952 
L 921.245349 472.732966 
L 923.475148 467.876928 
L 925.704948 473.946976 
L 930.164546 471.518957 
L 932.394345 472.732966 
L 934.624144 471.518957 
L 936.853943 381.682238 
L 939.083742 472.732966 
L 941.313541 461.199874 
L 943.543341 446.631758 
L 945.77314 467.876928 
L 948.002939 458.771855 
L 950.232738 447.845767 
L 952.462537 453.308811 
L 954.692336 455.736831 
L 956.922135 453.915816 
L 959.151935 461.806879 
L 961.381734 451.487797 
L 963.611533 473.339971 
L 965.841332 470.911952 
L 968.071131 467.876928 
L 970.30093 63.00469 
L 972.530729 444.810743 
L 974.760528 438.740695 
L 976.990328 470.304947 
L 979.220127 449.059777 
L 981.449926 455.129826 
L 983.679725 467.269923 
L 985.909524 458.16485 
L 988.139323 463.020889 
L 990.369122 467.269923 
L 992.598921 468.483932 
L 994.828721 436.312675 
L 997.05852 464.234898 
L 999.288319 472.732966 
L 1001.518118 473.339971 
L 1005.977716 468.483932 
L 1008.207515 465.448908 
L 1010.437315 470.304947 
L 1012.667114 463.627894 
L 1014.896913 470.911952 
L 1017.126712 473.946976 
L 1019.356511 467.269923 
L 1021.58631 472.125962 
L 1023.816109 464.234898 
L 1026.045908 452.701806 
L 1028.275708 442.989729 
L 1030.505507 464.841903 
L 1032.735306 470.911952 
L 1034.965105 472.125962 
L 1037.194904 474.553981 
L 1039.424703 475.160986 
L 1075.101489 475.160986 
L 1075.101489 475.160986 
" clip-path="url(#p6e401e42ca)" style="fill: none; stroke: #ff7f0e; stroke-width: 2; stroke-linecap: square"/>
   </g>
   <g id="line2d_39">
    <path d="M 109.598466 475.160986 
L 154.194449 475.160986 
L 165.343444 471.518957 
L 176.49244 473.946976 
L 180.952038 473.339971 
L 183.181837 474.553981 
L 185.411636 475.160986 
L 189.871235 469.697942 
L 192.101034 469.697942 
L 194.330833 458.771855 
L 196.560632 467.876928 
L 198.790431 462.413884 
L 201.02023 468.483932 
L 203.250029 471.518957 
L 205.479829 472.732966 
L 207.709628 471.518957 
L 209.939427 471.518957 
L 212.169226 473.946976 
L 214.399025 469.697942 
L 216.628824 469.090937 
L 218.858623 473.946976 
L 221.088422 470.911952 
L 223.318222 468.483932 
L 225.548021 467.269923 
L 227.77782 461.199874 
L 230.007619 466.055913 
L 232.237418 463.627894 
L 234.467217 466.055913 
L 236.697016 475.160986 
L 238.926815 463.020889 
L 245.616213 463.020889 
L 247.846012 455.736831 
L 250.075811 456.343835 
L 252.30561 452.701806 
L 254.535409 438.13369 
L 256.765209 425.993593 
L 258.995008 436.312675 
L 261.224807 435.70567 
L 265.684405 467.269923 
L 267.914204 457.557845 
L 270.144003 449.666782 
L 272.373802 410.818471 
L 274.603602 418.709534 
L 276.833401 428.421612 
L 279.0632 428.421612 
L 281.292999 432.670646 
L 283.522798 442.382724 
L 285.752597 451.487797 
L 287.982396 435.70567 
L 290.212195 444.810743 
L 294.671794 461.806879 
L 296.901593 455.736831 
L 299.131392 447.845767 
L 301.361191 459.985864 
L 303.59099 441.168714 
L 305.820789 451.487797 
L 308.050589 412.639486 
L 310.280388 434.491661 
L 312.510187 421.137554 
L 314.739986 424.172578 
L 316.969785 417.495525 
L 319.199584 433.884656 
L 321.429383 457.557845 
L 323.659182 450.273787 
L 325.888982 426.600597 
L 328.118781 435.098665 
L 330.34858 426.600597 
L 332.578379 435.098665 
L 334.808178 441.775719 
L 337.037977 451.487797 
L 339.267776 453.915816 
L 341.497575 452.094801 
L 343.727375 451.487797 
L 345.957174 451.487797 
L 348.186973 472.732966 
L 350.416772 450.273787 
L 352.646571 441.775719 
L 354.87637 452.094801 
L 357.106169 453.308811 
L 359.335968 453.915816 
L 361.565768 441.168714 
L 363.795567 416.88852 
L 366.025366 435.70567 
L 368.255165 408.390452 
L 370.484964 404.748423 
L 372.714763 395.64335 
L 374.944562 401.106394 
L 377.174362 399.892384 
L 379.404161 437.526685 
L 381.63396 450.880792 
L 383.863759 436.91968 
L 386.093558 443.596733 
L 388.323357 407.176442 
L 390.553156 336.763879 
L 392.782955 358.616054 
L 395.012755 358.009049 
L 397.242554 381.682238 
L 399.472353 396.85736 
L 401.702152 425.993593 
L 403.931951 413.246491 
L 406.16175 419.923544 
L 408.391549 443.596733 
L 410.621348 442.989729 
L 412.851148 438.740695 
L 415.080947 446.631758 
L 417.310746 455.129826 
L 419.540545 422.351564 
L 421.770344 450.880792 
L 424.000143 430.849631 
L 426.229942 436.91968 
L 428.459742 402.320403 
L 430.689541 396.250355 
L 432.91934 396.85736 
L 435.149139 433.884656 
L 437.378938 432.063641 
L 439.608737 412.032481 
L 441.838536 436.91968 
L 444.068335 436.312675 
L 446.298135 441.168714 
L 448.527934 432.670646 
L 450.757733 442.382724 
L 452.987532 441.775719 
L 455.217331 436.312675 
L 457.44713 421.137554 
L 459.676929 442.382724 
L 461.906728 440.561709 
L 464.136528 427.814607 
L 466.366327 422.958568 
L 468.596126 441.168714 
L 470.825925 469.090937 
L 473.055724 448.452772 
L 475.285523 435.70567 
L 479.745122 406.569437 
L 481.974921 393.215331 
L 484.20472 407.176442 
L 486.434519 368.935136 
L 488.664318 351.939 
L 490.894117 325.230787 
L 497.583515 446.024753 
L 499.813314 439.347699 
L 502.043113 418.10253 
L 504.272912 387.752287 
L 506.502711 376.826199 
L 508.73251 373.791175 
L 510.962309 350.724991 
L 513.192108 381.075233 
L 515.421908 385.324267 
L 517.651707 418.10253 
L 519.881506 401.106394 
L 522.111305 418.709534 
L 524.341104 410.818471 
L 526.570903 432.063641 
L 528.800702 424.172578 
L 531.030502 425.386588 
L 533.260301 434.491661 
L 535.4901 412.032481 
L 537.719899 432.670646 
L 539.949698 415.067505 
L 542.179497 421.744559 
L 544.409296 387.752287 
L 546.639095 407.783447 
L 548.868895 376.826199 
L 551.098694 436.91968 
L 553.328493 416.88852 
L 555.558292 408.997457 
L 557.788091 430.242627 
L 560.01789 430.242627 
L 562.247689 433.884656 
L 564.477488 422.351564 
L 566.707288 423.565573 
L 568.937087 455.736831 
L 571.166886 441.775719 
L 575.626484 467.876928 
L 577.856283 464.234898 
L 580.086082 463.627894 
L 582.315882 475.160986 
L 586.77548 473.946976 
L 591.235078 472.125962 
L 593.464877 474.553981 
L 595.694676 475.160986 
L 597.924475 472.732966 
L 600.154275 472.125962 
L 602.384074 475.160986 
L 604.613873 473.339971 
L 606.843672 472.732966 
L 609.073471 475.160986 
L 611.30327 475.160986 
L 613.533069 474.553981 
L 615.762868 474.553981 
L 620.222467 475.160986 
L 624.682065 475.160986 
L 633.601262 473.339971 
L 640.290659 474.553981 
L 646.980056 474.553981 
L 662.58865 475.160986 
L 671.507847 474.553981 
L 678.197244 475.160986 
L 702.725035 475.160986 
L 702.725035 475.160986 
" clip-path="url(#p6e401e42ca)" style="fill: none; stroke: #2ca02c; stroke-width: 2; stroke-linecap: square"/>
   </g>
   <g id="patch_3">
    <path d="M 60.654375 495.768801 
L 60.654375 42.396875 
" style="fill: none; stroke: #000000; stroke-width: 0.8; stroke-linejoin: miter; stroke-linecap: square"/>
   </g>
   <g id="patch_4">
    <path d="M 1137.424375 495.768801 
L 1137.424375 42.396875 
" style="fill: none; stroke: #000000; stroke-width: 0.8; stroke-linejoin: miter; stroke-linecap: square"/>
   </g>
   <g id="patch_5">
    <path d="M 60.654375 495.768801 
L 1137.424375 495.768801 
" style="fill: none; stroke: #000000; stroke-width: 0.8; stroke-linejoin: miter; stroke-linecap: square"/>
   </g>
   <g id="patch_6">
    <path d="M 60.654375 42.396875 
L 1137.424375 42.396875 
" style="fill: none; stroke: #000000; stroke-width: 0.8; stroke-linejoin: miter; stroke-linecap: square"/>
   </g>
   <g id="text_21">
    <!-- Number of Transactions per Week -->
    <g transform="translate(408.062812 22.396875) scale(0.2 -0.2)">
     <defs>
      <path id="DejaVuSans-Bold-4e" d="M 588 4666 
L 1931 4666 
L 3628 1466 
L 3628 4666 
L 4769 4666 
L 4769 0 
L 3425 0 
L 1728 3200 
L 1728 0 
L 588 0 
L 588 4666 
z
" transform="scale(0.015625)"/>
      <path id="DejaVuSans-Bold-75" d="M 500 1363 
L 500 3500 
L 1625 3500 
L 1625 3150 
Q 1625 2866 1622 2436 
Q 1619 2006 1619 1863 
Q 1619 1441 1641 1255 
Q 1663 1069 1716 984 
Q 1784 875 1895 815 
Q 2006 756 2150 756 
Q 2500 756 2700 1025 
Q 2900 1294 2900 1772 
L 2900 3500 
L 4019 3500 
L 4019 0 
L 2900 0 
L 2900 506 
Q 2647 200 2364 54 
Q 2081 -91 1741 -91 
Q 1134 -91 817 281 
Q 500 653 500 1363 
z
" transform="scale(0.015625)"/>
      <path id="DejaVuSans-Bold-6d" d="M 3781 2919 
Q 3994 3244 4286 3414 
Q 4578 3584 4928 3584 
Q 5531 3584 5847 3212 
Q 6163 2841 6163 2131 
L 6163 0 
L 5038 0 
L 5038 1825 
Q 5041 1866 5042 1909 
Q 5044 1953 5044 2034 
Q 5044 2406 4934 2573 
Q 4825 2741 4581 2741 
Q 4263 2741 4089 2478 
Q 3916 2216 3909 1719 
L 3909 0 
L 2784 0 
L 2784 1825 
Q 2784 2406 2684 2573 
Q 2584 2741 2328 2741 
Q 2006 2741 1831 2477 
Q 1656 2213 1656 1722 
L 1656 0 
L 531 0 
L 531 3500 
L 1656 3500 
L 1656 2988 
Q 1863 3284 2130 3434 
Q 2397 3584 2719 3584 
Q 3081 3584 3359 3409 
Q 3638 3234 3781 2919 
z
" transform="scale(0.015625)"/>
      <path id="DejaVuSans-Bold-62" d="M 2400 722 
Q 2759 722 2948 984 
Q 3138 1247 3138 1747 
Q 3138 2247 2948 2509 
Q 2759 2772 2400 2772 
Q 2041 2772 1848 2508 
Q 1656 2244 1656 1747 
Q 1656 1250 1848 986 
Q 2041 722 2400 722 
z
M 1656 2988 
Q 1888 3294 2169 3439 
Q 2450 3584 2816 3584 
Q 3463 3584 3878 3070 
Q 4294 2556 4294 1747 
Q 4294 938 3878 423 
Q 3463 -91 2816 -91 
Q 2450 -91 2169 54 
Q 1888 200 1656 506 
L 1656 0 
L 538 0 
L 538 4863 
L 1656 4863 
L 1656 2988 
z
" transform="scale(0.015625)"/>
      <path id="DejaVuSans-Bold-65" d="M 4031 1759 
L 4031 1441 
L 1416 1441 
Q 1456 1047 1700 850 
Q 1944 653 2381 653 
Q 2734 653 3104 758 
Q 3475 863 3866 1075 
L 3866 213 
Q 3469 63 3072 -14 
Q 2675 -91 2278 -91 
Q 1328 -91 801 392 
Q 275 875 275 1747 
Q 275 2603 792 3093 
Q 1309 3584 2216 3584 
Q 3041 3584 3536 3087 
Q 4031 2591 4031 1759 
z
M 2881 2131 
Q 2881 2450 2695 2645 
Q 2509 2841 2209 2841 
Q 1884 2841 1681 2658 
Q 1478 2475 1428 2131 
L 2881 2131 
z
" transform="scale(0.015625)"/>
      <path id="DejaVuSans-Bold-72" d="M 3138 2547 
Q 2991 2616 2845 2648 
Q 2700 2681 2553 2681 
Q 2122 2681 1889 2404 
Q 1656 2128 1656 1613 
L 1656 0 
L 538 0 
L 538 3500 
L 1656 3500 
L 1656 2925 
Q 1872 3269 2151 3426 
Q 2431 3584 2822 3584 
Q 2878 3584 2943 3579 
Q 3009 3575 3134 3559 
L 3138 2547 
z
" transform="scale(0.015625)"/>
      <path id="DejaVuSans-Bold-20" transform="scale(0.015625)"/>
      <path id="DejaVuSans-Bold-6f" d="M 2203 2784 
Q 1831 2784 1636 2517 
Q 1441 2250 1441 1747 
Q 1441 1244 1636 976 
Q 1831 709 2203 709 
Q 2569 709 2762 976 
Q 2956 1244 2956 1747 
Q 2956 2250 2762 2517 
Q 2569 2784 2203 2784 
z
M 2203 3584 
Q 3106 3584 3614 3096 
Q 4122 2609 4122 1747 
Q 4122 884 3614 396 
Q 3106 -91 2203 -91 
Q 1297 -91 786 396 
Q 275 884 275 1747 
Q 275 2609 786 3096 
Q 1297 3584 2203 3584 
z
" transform="scale(0.015625)"/>
      <path id="DejaVuSans-Bold-66" d="M 2841 4863 
L 2841 4128 
L 2222 4128 
Q 1984 4128 1890 4042 
Q 1797 3956 1797 3744 
L 1797 3500 
L 2753 3500 
L 2753 2700 
L 1797 2700 
L 1797 0 
L 678 0 
L 678 2700 
L 122 2700 
L 122 3500 
L 678 3500 
L 678 3744 
Q 678 4316 997 4589 
Q 1316 4863 1984 4863 
L 2841 4863 
z
" transform="scale(0.015625)"/>
      <path id="DejaVuSans-Bold-54" d="M 31 4666 
L 4331 4666 
L 4331 3756 
L 2784 3756 
L 2784 0 
L 1581 0 
L 1581 3756 
L 31 3756 
L 31 4666 
z
" transform="scale(0.015625)"/>
      <path id="DejaVuSans-Bold-61" d="M 2106 1575 
Q 1756 1575 1579 1456 
Q 1403 1338 1403 1106 
Q 1403 894 1545 773 
Q 1688 653 1941 653 
Q 2256 653 2472 879 
Q 2688 1106 2688 1447 
L 2688 1575 
L 2106 1575 
z
M 3816 1997 
L 3816 0 
L 2688 0 
L 2688 519 
Q 2463 200 2181 54 
Q 1900 -91 1497 -91 
Q 953 -91 614 226 
Q 275 544 275 1050 
Q 275 1666 698 1953 
Q 1122 2241 2028 2241 
L 2688 2241 
L 2688 2328 
Q 2688 2594 2478 2717 
Q 2269 2841 1825 2841 
Q 1466 2841 1156 2769 
Q 847 2697 581 2553 
L 581 3406 
Q 941 3494 1303 3539 
Q 1666 3584 2028 3584 
Q 2975 3584 3395 3211 
Q 3816 2838 3816 1997 
z
" transform="scale(0.015625)"/>
      <path id="DejaVuSans-Bold-6e" d="M 4056 2131 
L 4056 0 
L 2931 0 
L 2931 347 
L 2931 1631 
Q 2931 2084 2911 2256 
Q 2891 2428 2841 2509 
Q 2775 2619 2662 2680 
Q 2550 2741 2406 2741 
Q 2056 2741 1856 2470 
Q 1656 2200 1656 1722 
L 1656 0 
L 538 0 
L 538 3500 
L 1656 3500 
L 1656 2988 
Q 1909 3294 2193 3439 
Q 2478 3584 2822 3584 
Q 3428 3584 3742 3212 
Q 4056 2841 4056 2131 
z
" transform="scale(0.015625)"/>
      <path id="DejaVuSans-Bold-73" d="M 3272 3391 
L 3272 2541 
Q 2913 2691 2578 2766 
Q 2244 2841 1947 2841 
Q 1628 2841 1473 2761 
Q 1319 2681 1319 2516 
Q 1319 2381 1436 2309 
Q 1553 2238 1856 2203 
L 2053 2175 
Q 2913 2066 3209 1816 
Q 3506 1566 3506 1031 
Q 3506 472 3093 190 
Q 2681 -91 1863 -91 
Q 1516 -91 1145 -36 
Q 775 19 384 128 
L 384 978 
Q 719 816 1070 734 
Q 1422 653 1784 653 
Q 2113 653 2278 743 
Q 2444 834 2444 1013 
Q 2444 1163 2330 1236 
Q 2216 1309 1875 1350 
L 1678 1375 
Q 931 1469 631 1722 
Q 331 1975 331 2491 
Q 331 3047 712 3315 
Q 1094 3584 1881 3584 
Q 2191 3584 2531 3537 
Q 2872 3491 3272 3391 
z
" transform="scale(0.015625)"/>
      <path id="DejaVuSans-Bold-63" d="M 3366 3391 
L 3366 2478 
Q 3138 2634 2908 2709 
Q 2678 2784 2431 2784 
Q 1963 2784 1702 2511 
Q 1441 2238 1441 1747 
Q 1441 1256 1702 982 
Q 1963 709 2431 709 
Q 2694 709 2930 787 
Q 3166 866 3366 1019 
L 3366 103 
Q 3103 6 2833 -42 
Q 2563 -91 2291 -91 
Q 1344 -91 809 395 
Q 275 881 275 1747 
Q 275 2613 809 3098 
Q 1344 3584 2291 3584 
Q 2566 3584 2833 3536 
Q 3100 3488 3366 3391 
z
" transform="scale(0.015625)"/>
      <path id="DejaVuSans-Bold-74" d="M 1759 4494 
L 1759 3500 
L 2913 3500 
L 2913 2700 
L 1759 2700 
L 1759 1216 
Q 1759 972 1856 886 
Q 1953 800 2241 800 
L 2816 800 
L 2816 0 
L 1856 0 
Q 1194 0 917 276 
Q 641 553 641 1216 
L 641 2700 
L 84 2700 
L 84 3500 
L 641 3500 
L 641 4494 
L 1759 4494 
z
" transform="scale(0.015625)"/>
      <path id="DejaVuSans-Bold-69" d="M 538 3500 
L 1656 3500 
L 1656 0 
L 538 0 
L 538 3500 
z
M 538 4863 
L 1656 4863 
L 1656 3950 
L 538 3950 
L 538 4863 
z
" transform="scale(0.015625)"/>
      <path id="DejaVuSans-Bold-70" d="M 1656 506 
L 1656 -1331 
L 538 -1331 
L 538 3500 
L 1656 3500 
L 1656 2988 
Q 1888 3294 2169 3439 
Q 2450 3584 2816 3584 
Q 3463 3584 3878 3070 
Q 4294 2556 4294 1747 
Q 4294 938 3878 423 
Q 3463 -91 2816 -91 
Q 2450 -91 2169 54 
Q 1888 200 1656 506 
z
M 2400 2772 
Q 2041 2772 1848 2508 
Q 1656 2244 1656 1747 
Q 1656 1250 1848 986 
Q 2041 722 2400 722 
Q 2759 722 2948 984 
Q 3138 1247 3138 1747 
Q 3138 2247 2948 2509 
Q 2759 2772 2400 2772 
z
" transform="scale(0.015625)"/>
      <path id="DejaVuSans-Bold-57" d="M 191 4666 
L 1344 4666 
L 2150 1275 
L 2950 4666 
L 4109 4666 
L 4909 1275 
L 5716 4666 
L 6859 4666 
L 5759 0 
L 4372 0 
L 3525 3547 
L 2688 0 
L 1300 0 
L 191 4666 
z
" transform="scale(0.015625)"/>
      <path id="DejaVuSans-Bold-6b" d="M 538 4863 
L 1656 4863 
L 1656 2216 
L 2944 3500 
L 4244 3500 
L 2534 1894 
L 4378 0 
L 3022 0 
L 1656 1459 
L 1656 0 
L 538 0 
L 538 4863 
z
" transform="scale(0.015625)"/>
     </defs>
     <use xlink:href="#DejaVuSans-Bold-4e"/>
     <use xlink:href="#DejaVuSans-Bold-75" x="83.691406"/>
     <use xlink:href="#DejaVuSans-Bold-6d" x="154.882812"/>
     <use xlink:href="#DejaVuSans-Bold-62" x="259.082031"/>
     <use xlink:href="#DejaVuSans-Bold-65" x="330.664062"/>
     <use xlink:href="#DejaVuSans-Bold-72" x="398.486328"/>
     <use xlink:href="#DejaVuSans-Bold-20" x="447.802734"/>
     <use xlink:href="#DejaVuSans-Bold-6f" x="482.617188"/>
     <use xlink:href="#DejaVuSans-Bold-66" x="551.318359"/>
     <use xlink:href="#DejaVuSans-Bold-20" x="594.824219"/>
     <use xlink:href="#DejaVuSans-Bold-54" x="629.638672"/>
     <use xlink:href="#DejaVuSans-Bold-72" x="686.851562"/>
     <use xlink:href="#DejaVuSans-Bold-61" x="736.167969"/>
     <use xlink:href="#DejaVuSans-Bold-6e" x="803.648438"/>
     <use xlink:href="#DejaVuSans-Bold-73" x="874.839844"/>
     <use xlink:href="#DejaVuSans-Bold-61" x="934.361328"/>
     <use xlink:href="#DejaVuSans-Bold-63" x="1001.841797"/>
     <use xlink:href="#DejaVuSans-Bold-74" x="1061.119141"/>
     <use xlink:href="#DejaVuSans-Bold-69" x="1108.921875"/>
     <use xlink:href="#DejaVuSans-Bold-6f" x="1143.199219"/>
     <use xlink:href="#DejaVuSans-Bold-6e" x="1211.900391"/>
     <use xlink:href="#DejaVuSans-Bold-73" x="1283.091797"/>
     <use xlink:href="#DejaVuSans-Bold-20" x="1342.613281"/>
     <use xlink:href="#DejaVuSans-Bold-70" x="1377.427734"/>
     <use xlink:href="#DejaVuSans-Bold-65" x="1449.009766"/>
     <use xlink:href="#DejaVuSans-Bold-72" x="1516.832031"/>
     <use xlink:href="#DejaVuSans-Bold-20" x="1566.148438"/>
     <use xlink:href="#DejaVuSans-Bold-57" x="1600.962891"/>
     <use xlink:href="#DejaVuSans-Bold-65" x="1707.640625"/>
     <use xlink:href="#DejaVuSans-Bold-65" x="1775.462891"/>
     <use xlink:href="#DejaVuSans-Bold-6b" x="1843.285156"/>
    </g>
   </g>
   <g id="legend_1">
    <g id="patch_7">
     <path d="M 69.054375 104.838125 
L 198.58125 104.838125 
Q 200.98125 104.838125 200.98125 102.438125 
L 200.98125 50.796875 
Q 200.98125 48.396875 198.58125 48.396875 
L 69.054375 48.396875 
Q 66.654375 48.396875 66.654375 50.796875 
L 66.654375 102.438125 
Q 66.654375 104.838125 69.054375 104.838125 
z
" style="fill: #ffffff; opacity: 0.8; stroke: #cccccc; stroke-linejoin: miter"/>
    </g>
    <g id="line2d_40">
     <path d="M 71.454375 58.115 
L 83.454375 58.115 
L 95.454375 58.115 
" style="fill: none; stroke: #1f77b4; stroke-width: 2; stroke-linecap: square"/>
    </g>
    <g id="text_22">
     <!-- User Triplets -->
     <g transform="translate(105.054375 62.315) scale(0.12 -0.12)">
      <defs>
       <path id="DejaVuSans-55" d="M 556 4666 
L 1191 4666 
L 1191 1831 
Q 1191 1081 1462 751 
Q 1734 422 2344 422 
Q 2950 422 3222 751 
Q 3494 1081 3494 1831 
L 3494 4666 
L 4128 4666 
L 4128 1753 
Q 4128 841 3676 375 
Q 3225 -91 2344 -91 
Q 1459 -91 1007 375 
Q 556 841 556 1753 
L 556 4666 
z
" transform="scale(0.015625)"/>
       <path id="DejaVuSans-70" d="M 1159 525 
L 1159 -1331 
L 581 -1331 
L 581 3500 
L 1159 3500 
L 1159 2969 
Q 1341 3281 1617 3432 
Q 1894 3584 2278 3584 
Q 2916 3584 3314 3078 
Q 3713 2572 3713 1747 
Q 3713 922 3314 415 
Q 2916 -91 2278 -91 
Q 1894 -91 1617 61 
Q 1341 213 1159 525 
z
M 3116 1747 
Q 3116 2381 2855 2742 
Q 2594 3103 2138 3103 
Q 1681 3103 1420 2742 
Q 1159 2381 1159 1747 
Q 1159 1113 1420 752 
Q 1681 391 2138 391 
Q 2594 391 2855 752 
Q 3116 1113 3116 1747 
z
" transform="scale(0.015625)"/>
       <path id="DejaVuSans-6c" d="M 603 4863 
L 1178 4863 
L 1178 0 
L 603 0 
L 603 4863 
z
" transform="scale(0.015625)"/>
      </defs>
      <use xlink:href="#DejaVuSans-55"/>
      <use xlink:href="#DejaVuSans-73" x="73.193359"/>
      <use xlink:href="#DejaVuSans-65" x="125.292969"/>
      <use xlink:href="#DejaVuSans-72" x="186.816406"/>
      <use xlink:href="#DejaVuSans-20" x="227.929688"/>
      <use xlink:href="#DejaVuSans-54" x="259.716797"/>
      <use xlink:href="#DejaVuSans-72" x="306.050781"/>
      <use xlink:href="#DejaVuSans-69" x="347.164062"/>
      <use xlink:href="#DejaVuSans-70" x="374.947266"/>
      <use xlink:href="#DejaVuSans-6c" x="438.423828"/>
      <use xlink:href="#DejaVuSans-65" x="466.207031"/>
      <use xlink:href="#DejaVuSans-74" x="527.730469"/>
      <use xlink:href="#DejaVuSans-73" x="566.939453"/>
     </g>
    </g>
    <g id="line2d_41">
     <path d="M 71.454375 75.72875 
L 83.454375 75.72875 
L 95.454375 75.72875 
" style="fill: none; stroke: #ff7f0e; stroke-width: 2; stroke-linecap: square"/>
    </g>
    <g id="text_23">
     <!-- Spot Rentals -->
     <g transform="translate(105.054375 79.92875) scale(0.12 -0.12)">
      <defs>
       <path id="DejaVuSans-53" d="M 3425 4513 
L 3425 3897 
Q 3066 4069 2747 4153 
Q 2428 4238 2131 4238 
Q 1616 4238 1336 4038 
Q 1056 3838 1056 3469 
Q 1056 3159 1242 3001 
Q 1428 2844 1947 2747 
L 2328 2669 
Q 3034 2534 3370 2195 
Q 3706 1856 3706 1288 
Q 3706 609 3251 259 
Q 2797 -91 1919 -91 
Q 1588 -91 1214 -16 
Q 841 59 441 206 
L 441 856 
Q 825 641 1194 531 
Q 1563 422 1919 422 
Q 2459 422 2753 634 
Q 3047 847 3047 1241 
Q 3047 1584 2836 1778 
Q 2625 1972 2144 2069 
L 1759 2144 
Q 1053 2284 737 2584 
Q 422 2884 422 3419 
Q 422 4038 858 4394 
Q 1294 4750 2059 4750 
Q 2388 4750 2728 4690 
Q 3069 4631 3425 4513 
z
" transform="scale(0.015625)"/>
       <path id="DejaVuSans-52" d="M 2841 2188 
Q 3044 2119 3236 1894 
Q 3428 1669 3622 1275 
L 4263 0 
L 3584 0 
L 2988 1197 
Q 2756 1666 2539 1819 
Q 2322 1972 1947 1972 
L 1259 1972 
L 1259 0 
L 628 0 
L 628 4666 
L 2053 4666 
Q 2853 4666 3247 4331 
Q 3641 3997 3641 3322 
Q 3641 2881 3436 2590 
Q 3231 2300 2841 2188 
z
M 1259 4147 
L 1259 2491 
L 2053 2491 
Q 2509 2491 2742 2702 
Q 2975 2913 2975 3322 
Q 2975 3731 2742 3939 
Q 2509 4147 2053 4147 
L 1259 4147 
z
" transform="scale(0.015625)"/>
      </defs>
      <use xlink:href="#DejaVuSans-53"/>
      <use xlink:href="#DejaVuSans-70" x="63.476562"/>
      <use xlink:href="#DejaVuSans-6f" x="126.953125"/>
      <use xlink:href="#DejaVuSans-74" x="188.134766"/>
      <use xlink:href="#DejaVuSans-20" x="227.34375"/>
      <use xlink:href="#DejaVuSans-52" x="259.130859"/>
      <use xlink:href="#DejaVuSans-65" x="324.113281"/>
      <use xlink:href="#DejaVuSans-6e" x="385.636719"/>
      <use xlink:href="#DejaVuSans-74" x="449.015625"/>
      <use xlink:href="#DejaVuSans-61" x="488.224609"/>
      <use xlink:href="#DejaVuSans-6c" x="549.503906"/>
      <use xlink:href="#DejaVuSans-73" x="577.287109"/>
     </g>
    </g>
    <g id="line2d_42">
     <path d="M 71.454375 93.3425 
L 83.454375 93.3425 
L 95.454375 93.3425 
" style="fill: none; stroke: #2ca02c; stroke-width: 2; stroke-linecap: square"/>
    </g>
    <g id="text_24">
     <!-- Original Orders -->
     <g transform="translate(105.054375 97.5425) scale(0.12 -0.12)">
      <defs>
       <path id="DejaVuSans-4f" d="M 2522 4238 
Q 1834 4238 1429 3725 
Q 1025 3213 1025 2328 
Q 1025 1447 1429 934 
Q 1834 422 2522 422 
Q 3209 422 3611 934 
Q 4013 1447 4013 2328 
Q 4013 3213 3611 3725 
Q 3209 4238 2522 4238 
z
M 2522 4750 
Q 3503 4750 4090 4092 
Q 4678 3434 4678 2328 
Q 4678 1225 4090 567 
Q 3503 -91 2522 -91 
Q 1538 -91 948 565 
Q 359 1222 359 2328 
Q 359 3434 948 4092 
Q 1538 4750 2522 4750 
z
" transform="scale(0.015625)"/>
       <path id="DejaVuSans-67" d="M 2906 1791 
Q 2906 2416 2648 2759 
Q 2391 3103 1925 3103 
Q 1463 3103 1205 2759 
Q 947 2416 947 1791 
Q 947 1169 1205 825 
Q 1463 481 1925 481 
Q 2391 481 2648 825 
Q 2906 1169 2906 1791 
z
M 3481 434 
Q 3481 -459 3084 -895 
Q 2688 -1331 1869 -1331 
Q 1566 -1331 1297 -1286 
Q 1028 -1241 775 -1147 
L 775 -588 
Q 1028 -725 1275 -790 
Q 1522 -856 1778 -856 
Q 2344 -856 2625 -561 
Q 2906 -266 2906 331 
L 2906 616 
Q 2728 306 2450 153 
Q 2172 0 1784 0 
Q 1141 0 747 490 
Q 353 981 353 1791 
Q 353 2603 747 3093 
Q 1141 3584 1784 3584 
Q 2172 3584 2450 3431 
Q 2728 3278 2906 2969 
L 2906 3500 
L 3481 3500 
L 3481 434 
z
" transform="scale(0.015625)"/>
       <path id="DejaVuSans-64" d="M 2906 2969 
L 2906 4863 
L 3481 4863 
L 3481 0 
L 2906 0 
L 2906 525 
Q 2725 213 2448 61 
Q 2172 -91 1784 -91 
Q 1150 -91 751 415 
Q 353 922 353 1747 
Q 353 2572 751 3078 
Q 1150 3584 1784 3584 
Q 2172 3584 2448 3432 
Q 2725 3281 2906 2969 
z
M 947 1747 
Q 947 1113 1208 752 
Q 1469 391 1925 391 
Q 2381 391 2643 752 
Q 2906 1113 2906 1747 
Q 2906 2381 2643 2742 
Q 2381 3103 1925 3103 
Q 1469 3103 1208 2742 
Q 947 2381 947 1747 
z
" transform="scale(0.015625)"/>
      </defs>
      <use xlink:href="#DejaVuSans-4f"/>
      <use xlink:href="#DejaVuSans-72" x="78.710938"/>
      <use xlink:href="#DejaVuSans-69" x="119.824219"/>
      <use xlink:href="#DejaVuSans-67" x="147.607422"/>
      <use xlink:href="#DejaVuSans-69" x="211.083984"/>
      <use xlink:href="#DejaVuSans-6e" x="238.867188"/>
      <use xlink:href="#DejaVuSans-61" x="302.246094"/>
      <use xlink:href="#DejaVuSans-6c" x="363.525391"/>
      <use xlink:href="#DejaVuSans-20" x="391.308594"/>
      <use xlink:href="#DejaVuSans-4f" x="423.095703"/>
      <use xlink:href="#DejaVuSans-72" x="501.806641"/>
      <use xlink:href="#DejaVuSans-64" x="541.169922"/>
      <use xlink:href="#DejaVuSans-65" x="604.646484"/>
      <use xlink:href="#DejaVuSans-72" x="666.169922"/>
      <use xlink:href="#DejaVuSans-73" x="707.283203"/>
     </g>
    </g>
   </g>
  </g>
 </g>
 <defs>
  <clipPath id="p6e401e42ca">
   <rect x="60.654375" y="42.396875" width="1076.77" height="453.371926"/>
  </clipPath>
 </defs>
</svg>
